<svg id="Layer_35" enable-background="new 0 0 64 64" height="512" viewBox="0 0 64 64" width="512" xmlns="http://www.w3.org/2000/svg"><path d="m28 48v14h-4v-4.5c0-1.93-1.57-3.5-3.5-3.5-.96 0-1.84.39-2.47 1.03-.64.63-1.03 1.51-1.03 2.47v4.5h-4v-4.5c0-1.93-1.57-3.5-3.5-3.5-.96 0-1.84.39-2.47 1.03-.64.63-1.03 1.51-1.03 2.47v4.5h-4v-14h2 8 8z" fill="#e6e9ed"/><path d="m58 4v4h-26v-4c0-1.1.9-2 2-2h22c1.1 0 2 .9 2 2z" fill="#fcd770"/><path d="m58 8h-26c-2.21 0-4 1.79-4 4v50h34v-50c0-2.21-1.79-4-4-4z" fill="#ffeaa7"/><g fill="#e6e9ed"><path d="m52 14h6v36h-6z"/><path d="m42 14h6v36h-6z"/><path d="m32 14h6v36h-6z"/></g><path d="m28 14v4h-23l2-4z" fill="#ccd1d9"/><path d="m28 18v6h-8-8-8l-1.61-2.42c-.26-.38-.39-.82-.39-1.28 0-1.27 1.03-2.3 2.3-2.3h.7z" fill="#e6e9ed"/><path d="m4 24h24v24h-24z" fill="#69d6f4"/><path d="m24 57.5v4.5h-7v-4.5c0-.96.39-1.84 1.03-2.47.63-.64 1.51-1.03 2.47-1.03 1.93 0 3.5 1.57 3.5 3.5z" fill="#ecc19c"/><path d="m13 57.5v4.5h-7v-4.5c0-.96.39-1.84 1.03-2.47.63-.64 1.51-1.03 2.47-1.03 1.93 0 3.5 1.57 3.5 3.5z" fill="#ecc19c"/><path d="m50 54h8v8h-8z" fill="#69d6f4"/><path d="m40 54h10v8h-10z" fill="#69d6f4"/><path d="m32 54h8v8h-8z" fill="#69d6f4"/><path d="m31 51h8v-38h-8zm2-2v-4h4v4zm4-22v4h-4v-4zm-4-2v-4h4v4zm4 8v4h-4v-4zm0 6v4h-4v-4zm0-24v4h-4v-4z"/><path d="m59 7.101v-3.101c0-1.654-1.346-3-3-3h-22c-1.654 0-3 1.346-3 3v3.101c-2.279.465-4 2.485-4 4.899v1h-20.618l-2 4h-.079c-1.822 0-3.303 1.481-3.303 3.303 0 .653.192 1.287.555 1.832l1.445 2.168v22.697h-2v16h62v-51c0-2.414-1.721-4.434-4-4.899zm-51.382 7.899h19.382v2h-20.382zm-3.315 4h22.697v4h-22.465l-1.316-1.974c-.143-.215-.219-.465-.219-.723 0-.719.584-1.303 1.303-1.303zm8.697 28v-6h6v6zm0-8v-6h6v6zm-2-14v6h-6v-6zm8 0v6h-6v-6zm-14 8h6v6h-6zm16 0h6v6h-6zm0-2v-6h6v6zm-16 10h6v6h-6zm7 20h-5v-3.5c0-1.378 1.122-2.5 2.5-2.5s2.5 1.122 2.5 2.5zm11 0h-5v-3.5c0-1.378 1.122-2.5 2.5-2.5s2.5 1.122 2.5 2.5zm4 0h-2v-3.5c0-2.481-2.019-4.5-4.5-4.5s-4.5 2.019-4.5 4.5v3.5h-2v-3.5c0-2.481-2.019-4.5-4.5-4.5s-4.5 2.019-4.5 4.5v3.5h-2v-12h24zm-6-14v-6h6v6zm13-44h22c.551 0 1 .449 1 1v3h-24v-3c0-.551.449-1 1-1zm23 58h-6v-6h6zm-8 0h-8v-6h8zm-10 0h-6v-6h6zm22 0h-2v-8h-28v8h-2v-49c0-1.654 1.346-3 3-3h26c1.654 0 3 1.346 3 3z"/><path d="m41 51h8v-38h-8zm2-2v-4h4v4zm4-22v4h-4v-4zm-4-2v-4h4v4zm4 8v4h-4v-4zm0 6v4h-4v-4zm0-24v4h-4v-4z"/><path d="m51 51h8v-38h-8zm2-2v-4h4v4zm4-22v4h-4v-4zm-4-2v-4h4v4zm4 8v4h-4v-4zm0 6v4h-4v-4zm0-24v4h-4v-4z"/></svg>